MEGA_HINDI_VIDEO_SONGS_2010 (UNTOUCHED) BY~~ loveislifeforlovers@gmail.com~~NIKHIL

FRONT COVER:- http://bayimg.com/eAmlaAAcH
CD SCREEN:-   http://bayimg.com/eamLPaACH

Format                           : MPEG-PS
no of main files                 : 18
File size                        : 7.67 GiB
Overall bit rate                 : 2 275 Kbps

Video
ID                               : 224 (0xE0)
Format                           : MPEG Video
Format version                   : Version 2
Format profile                   : Main@Main
Format settings, BVOP            : Yes
Format settings, Matrix          : Default
Bit rate mode                    : Constant
Bit rate                         : 2 000 Kbps
Width                            : 720 pixels
Height                           : 480 pixels
Display aspect ratio             : 4:3
Frame rate                       : 29.970 fps
Standard                         : NTSC
Resolution                       : 8 bits
Colorimetry                      : 4:2:0
Scan type                        : Interlaced
Scan order                       : Top Field First
Bits/(Pixel*Frame)               : 0.193
Stream size                      : 897 MiB (88%)

Audio
ID                               : 128 (0x80)
Format                           : AC-3
Format/Info                      : Audio Coding 3
Bit rate mode                    : Constant
Bit rate                         : 192 Kbps
Channel(s)                       : 3 channels
Channel positions                : L R, LFE
Sampling rate                    : 48.0 KHz
Video delay                      : -503ms
Stream size                      : 86.4 MiB (8%)

SCREEN :

WARNING : http://bayimg.com/famLgaACH
[IMG]http://i894.photobucket.com/albums/ac145/nikhilsweet/1-3.png[/IMG]
[IMG]http://i894.photobucket.com/albums/ac145/nikhilsweet/2-2.png[/IMG]
[IMG]http://i894.photobucket.com/albums/ac145/nikhilsweet/3-3.png[/IMG]
[IMG]http://i894.photobucket.com/albums/ac145/nikhilsweet/4-2.png[/IMG]
[IMG]http://i894.photobucket.com/albums/ac145/nikhilsweet/6-2.png[/IMG]
[IMG]http://i894.photobucket.com/albums/ac145/nikhilsweet/7-1.png[/IMG]

ripped and xtracted by -- NIKHIL

pls forward ur comment for the further posing as such ones....